<?xml version="1.0" encoding="UTF-8" standalone="no"?>
<svg
   viewBox="0 0 256 256"
   overflow="visible"
   version="1.1"
   id="svg8"
   sodipodi:docname="mqtt-logo.svg"
   width="256"
   height="256"
   inkscape:version="1.1.1 (3bf5ae0d25, 2021-09-20)"
   xmlns:inkscape="http://www.inkscape.org/namespaces/inkscape"
   xmlns:sodipodi="http://sodipodi.sourceforge.net/DTD/sodipodi-0.dtd"
   xmlns="http://www.w3.org/2000/svg"
   xmlns:svg="http://www.w3.org/2000/svg">
  <defs
     id="defs12" />
  <sodipodi:namedview
     id="namedview10"
     pagecolor="#ffffff"
     bordercolor="#666666"
     borderopacity="1.0"
     inkscape:pageshadow="2"
     inkscape:pageopacity="0.0"
     inkscape:pagecheckerboard="0"
     showgrid="false"
     inkscape:zoom="0.99333333"
     inkscape:cx="350.33557"
     inkscape:cy="300"
     inkscape:window-width="1600"
     inkscape:window-height="831"
     inkscape:window-x="0"
     inkscape:window-y="0"
     inkscape:window-maximized="1"
     inkscape:current-layer="svg8" />
  <g
     id="g832"
     transform="matrix(0.40240168,0,0,0.40240168,-12.840588,7.6215374)">
    <path
       d="m 135.9,476.5 3.8,8.9 3.8,-9.1 4.1,-8.5 39.6,-78 c 0.7,-1.3 1.4,-2.4 2.2,-3.1 0.7,-0.7 1.6,-1.3 2.5,-1.6 0.9,-0.4 2,-0.5 3.1,-0.5 h 31.4 V 538.7 H 194.9 V 450 c 0,-4.3 0.2,-9 0.6,-14 l -40.8,79.3 c -1.3,2.5 -3,4.3 -5.1,5.6 -2.2,1.3 -4.6,1.9 -7.4,1.9 h -4.9 c -2.8,0 -5.2,-0.6 -7.4,-1.9 -2.2,-1.3 -3.9,-3.1 -5.1,-5.6 L 83.7,435.9 c 0.3,2.5 0.5,4.9 0.6,7.4 l 0.2,6.7 v 88.7 H 53 V 384.5 h 31.4 c 1.2,0 2.2,0.2 3.1,0.5 a 9.63,9.63 0 0 1 2.5,1.6 c 0.7,0.7 1.5,1.8 2.2,3.1 l 39.7,78.3 z m 259.5,-15 c 0,6.6 -0.7,13 -2.1,19.1 -1.4,6.1 -3.4,11.8 -5.9,17.2 -2.6,5.4 -5.8,10.3 -9.5,14.9 -3.8,4.6 -8.1,8.6 -12.9,12.2 l 39,42.6 h -29.4 c -4.2,0 -8.1,-0.5 -11.5,-1.5 -3.5,-1 -6.5,-3.1 -9.2,-6.2 l -19.2,-21.5 c -3.1,0.6 -6.3,1.1 -9.5,1.5 -3.2,0.4 -6.5,0.5 -9.9,0.5 -12,0 -22.9,-2 -32.8,-6 -9.9,-4 -18.3,-9.6 -25.3,-16.7 a 74.13,74.13 0 0 1 -16.3,-25 c -3.8,-9.6 -5.8,-20 -5.8,-31.1 0,-11.1 1.9,-21.5 5.8,-31.1 a 74.13,74.13 0 0 1 16.3,-25 c 7,-7.1 15.5,-12.6 25.3,-16.6 9.9,-4 20.8,-6 32.8,-6 12,0 22.9,2 32.7,6.1 9.8,4.1 18.3,9.6 25.2,16.7 7,7.1 12.4,15.4 16.2,25 4.1,9.5 6,19.8 6,30.9 z m -36.6,0 c 0,-7.6 -1,-14.5 -3,-20.6 -2,-6.1 -4.8,-11.3 -8.5,-15.5 -3.7,-4.2 -8.2,-7.5 -13.6,-9.7 -5.4,-2.3 -11.5,-3.4 -18.3,-3.4 -6.9,0 -13.1,1.1 -18.5,3.4 -5.4,2.3 -9.9,5.5 -13.6,9.7 -3.7,4.2 -6.5,9.4 -8.5,15.5 -2,6.1 -3,13 -3,20.6 0,7.7 1,14.6 3,20.7 2,6.1 4.8,11.3 8.5,15.5 3.7,4.2 8.3,7.5 13.6,9.7 5.4,2.2 11.5,3.3 18.5,3.3 6.8,0 12.9,-1.1 18.3,-3.3 5.4,-2.2 9.9,-5.4 13.6,-9.7 3.7,-4.2 6.5,-9.4 8.5,-15.5 2,-6.1 3,-13 3,-20.7 z m 151,-77.1 v 28.4 H 468.4 V 538.6 H 432.6 V 412.8 h -41.4 v -28.4 z m 137.2,0 v 28.4 H 603.6 V 538.6 H 567.8 V 412.8 h -41.4 v -28.4 z"
       fill="#660066"
       id="path2" />
    <path
       d="m 197.1,157.6 v 46.7 c 73.8,0.1 134,59.3 135,132.4 h 45.5 C 376.5,238.4 296.1,158.6 197.1,157.6 Z m 0,-96.5 v 46.7 c 127.4,0.1 231.1,102.5 232.1,228.9 h 45.5 C 473.7,185.2 349.7,62.1 197.1,61.1 Z M 502.9,217.3 V 121.4 C 491.1,105.3 477,88 462.5,73.6 446.5,57.7 428.4,43.5 410.2,30.9 H 309 c 88.3,31.8 159.1,100 193.9,186.4 z"
       fill="#ffffff"
       id="path4" />
    <path
       d="m 197.1,204.4 v 117.1 c 0,8.4 6.8,15.3 15.3,15.3 H 332 C 331,263.6 270.9,204.4 197.1,204.4 Z m 0,-96.6 v 49.8 c 99,0.9 179.4,80.7 180.4,179.1 h 51.7 C 428.2,210.4 324.5,107.9 197.1,107.8 Z M 502.9,321.4 V 217.3 C 468.1,130.9 397.3,62.7 309,30.8 h -96.6 c -8.4,0 -15.3,6.8 -15.3,15.3 v 15 c 152.6,0.9 276.6,124 277.6,275.6 h 13 c 8.4,0 15.2,-6.8 15.2,-15.3 z M 462.6,73.6 c 14.5,14.4 28.6,31.7 40.4,47.8 V 46.1 c 0,-8.4 -6.8,-15.3 -15.3,-15.3 h -77.3 c 18,12.6 36.2,26.9 52.2,42.8 z"
       fill="#660066"
       id="path6" />
  </g>
</svg>
